<?xml version="1.0" standalone="no"?>
<!DOCTYPE svg PUBLIC "-//W3C//DTD SVG 20010904//EN"
 "http://www.w3.org/TR/2001/REC-SVG-20010904/DTD/svg10.dtd">
<svg version="1.0" xmlns="http://www.w3.org/2000/svg"
 width="300.000000pt" height="90.000000pt" viewBox="0 0 300.000000 90.000000"
 preserveAspectRatio="xMidYMid meet">
<metadata>
Created by potrace 1.10, written by Peter Selinger 2001-2011
</metadata>
<g transform="translate(0.000000,90.000000) scale(0.100000,-0.100000)"
fill="#000000" stroke="none">
<path d="M1042 880 c-40 -11 -101 -33 -135 -49 -62 -30 -83 -46 -239 -174
-107 -88 -311 -190 -513 -257 -82 -27 -142 -49 -132 -50 35 0 314 98 417 148
132 63 202 109 312 204 105 90 195 139 314 172 49 14 80 25 69 25 -11 0 -53
-9 -93 -19z"/>
<path d="M1380 874 c0 -5 39 -43 87 -84 l87 -75 328 0 c324 0 328 0 287 18
-119 50 -315 118 -371 127 -83 15 -418 26 -418 14z m420 -58 c42 -8 92 -22
111 -32 l34 -19 -174 -7 c-96 -3 -184 -3 -196 2 -28 11 -85 59 -85 72 0 14
200 3 310 -16z"/>
<path d="M1175 854 c-11 -2 -45 -9 -75 -15 -30 -6 -72 -18 -93 -26 l-37 -15
31 -35 c17 -20 37 -49 45 -67 l15 -31 102 3 c56 2 149 7 206 10 l105 7 -45 54
c-67 82 -175 131 -254 115z m130 -63 c40 -18 83 -57 73 -66 -8 -8 -253 -18
-280 -12 -26 7 -55 54 -41 68 32 31 188 38 248 10z"/>
<path d="M880 754 c-44 -25 -120 -91 -120 -105 0 -4 17 -3 38 2 20 5 81 9 135
9 53 0 97 3 97 8 0 14 -76 107 -90 109 -8 2 -35 -9 -60 -23z"/>
<path d="M1860 691 c-118 -7 -120 -7 -40 -9 189 -5 510 -52 573 -84 47 -24
111 -81 149 -132 39 -55 35 -38 -13 50 -23 41 -38 78 -34 82 15 15 222 14 276
-1 65 -20 75 -15 18 7 -155 62 -603 104 -929 87z"/>
<path d="M2133 589 c-32 -12 -29 -45 7 -81 26 -25 36 -29 77 -27 50 2 73 13
73 33 0 6 -7 2 -15 -8 -14 -19 -15 -19 -15 6 0 17 -10 34 -26 47 -15 12 -22
21 -17 21 6 0 22 -11 37 -25 14 -13 26 -20 26 -15 0 15 -53 51 -67 46 -7 -3
-23 -2 -36 3 -12 5 -32 5 -44 0z"/>
<path d="M2618 592 c-75 -2 -88 -5 -88 -20 0 -21 52 -113 74 -131 10 -8 63
-15 152 -18 l137 -6 -5 35 c-10 58 -36 108 -61 117 -46 18 -122 26 -209 23z
m178 -58 c30 -15 40 -26 42 -48 l4 -29 -104 8 c-109 7 -121 12 -144 56 -13 26
-12 28 9 33 46 10 155 -1 193 -20z"/>
<path d="M2293 574 c-16 -43 64 -120 117 -113 22 4 25 9 24 41 -1 21 3 35 7
32 5 -3 9 -19 9 -35 0 -18 4 -28 10 -24 18 11 11 41 -15 65 -14 13 -25 20 -25
16 0 -4 -13 2 -29 13 -35 25 -89 28 -98 5z"/>
<path d="M2894 489 c22 -51 46 -75 46 -47 0 19 -43 91 -57 95 -8 3 -4 -16 11
-48z"/>
<path d="M1760 498 c60 -24 76 -36 97 -73 45 -81 39 -233 -13 -322 -14 -24
-26 -43 -27 -43 -1 0 -20 -7 -42 -15 l-40 -14 35 -1 c50 0 103 39 131 97 31
63 38 181 15 251 -25 74 -96 133 -159 131 -21 0 -21 -1 3 -11z"/>
<path d="M775 400 c17 -61 40 -94 70 -101 34 -8 680 -21 673 -14 -3 3 -142 12
-309 20 -167 9 -321 20 -342 26 -26 7 -47 23 -68 52 -24 32 -30 36 -24 17z"/>
<path d="M835 250 c-22 -4 113 -8 299 -9 187 0 337 1 335 3 -8 7 -596 14 -634
6z"/>
<path d="M1998 191 c2 -31 5 -57 6 -58 8 -10 268 -23 466 -23 356 0 517 19
521 63 1 13 -2 41 -5 44 -1 1 -20 -4 -42 -12 -69 -24 -283 -35 -479 -25 -99 5
-185 10 -192 10 -6 0 -24 11 -40 24 -24 20 -42 24 -134 28 l-105 6 4 -57z
m212 -11 l25 -20 -78 0 c-78 0 -123 12 -112 31 4 5 36 9 73 9 51 0 73 -5 92
-20z"/>
<path d="M1942 187 c-4 -61 -41 -112 -118 -165 -18 -12 -18 -13 -1 -7 10 3 43
5 72 5 47 0 59 4 91 33 l37 32 -34 5 c-34 5 -34 6 -40 65 -3 33 -6 47 -7 32z"/>
<path d="M570 175 c282 -49 431 -64 670 -69 262 -5 253 -3 -160 29 -107 9
-274 25 -370 35 -196 22 -252 24 -140 5z"/>
<path d="M2611 83 c-160 -3 -163 -4 -140 -22 73 -56 176 -69 255 -31 44 22 88
62 63 58 -8 -1 -88 -4 -178 -5z"/>
</g>
</svg>
